<?xml version="1.0" encoding="UTF-8"?>
<!DOCTYPE svg PUBLIC "-//W3C//DTD SVG 1.1//EN" "http://www.w3.org/Graphics/SVG/1.1/DTD/svg11.dtd">
<svg version="1.1" xmlns="http://www.w3.org/2000/svg" xmlns:xlink="http://www.w3.org/1999/xlink" x="0" y="0" width="50" height="50" viewBox="0, 0, 50, 50">
  <g id="Background">
    <rect x="0" y="0" width="50" height="50" fill="#000000" fill-opacity="0"/>
  </g>
  <defs>
    <linearGradient id="Gradient_1" gradientUnits="userSpaceOnUse" x1="-30.846" y1="-35.593" x2="-30.846" y2="-30.731" gradientTransform="matrix(-1, 0, -0, -1, 0, 0)">
      <stop offset="0" stop-color="#800000"/>
      <stop offset="1" stop-color="#000000"/>
    </linearGradient>
  </defs>
  <g id="Layer_1">
    <g>
      <path d="M-0,10.785 L50,10.785 L50,40.57 L-0,40.57 L-0,10.785 z" fill="#727272"/>
      <path d="M50,10.785 L50,40.57 L0,40.57 L0,10.785 L50,10.785 z M47.75,13.035 L2.25,13.035 L2.25,38.32 L47.75,38.32 L47.75,13.035 z" fill="#000000"/>
    </g>
    <g>
      <path d="M25,50 C11.193,50 0,45.171 0,39.215 C0,33.258 11.193,28.43 25,28.43 C38.807,28.43 50,33.258 50,39.215 C50,45.171 38.807,50 25,50 z" fill="#FF0000"/>
      <path d="M25,28.43 C38.807,28.43 50,33.258 50,39.215 C50,45.171 38.807,50 25,50 C11.193,50 0,45.171 0,39.215 C0,33.258 11.193,28.43 25,28.43 z M25,30.68 C12.307,30.68 2.25,35.018 2.25,39.215 C2.25,43.411 12.307,47.75 25,47.75 C37.693,47.75 47.75,43.411 47.75,39.215 C47.75,35.018 37.693,30.68 25,30.68 z" fill="#000000"/>
    </g>
    <g>
      <path d="M31.095,9.187 C37.443,9.187 42.588,14.333 42.588,20.68 C42.607,22.795 41.948,24.825 40.907,26.647 C42.452,29.114 42.549,32.336 41.085,34.863 C39.799,37.083 37.573,38.492 35.04,38.794 C32.86,41.433 29.992,42.753 26.587,42.84 C23.896,42.821 21.269,41.823 19.279,40.003 C18.223,39.038 17.406,37.884 16.766,36.61 C16.293,36.794 15.788,36.851 15.285,36.871 C12.9,36.871 10.967,34.938 10.967,32.553 C10.953,31.913 11.129,31.306 11.376,30.723 C8.836,28.667 7.453,25.714 7.412,22.458 C7.412,16.601 12.159,11.854 18.015,11.854 C18.405,11.859 18.198,11.853 18.636,11.875 C20.11,9.91 22.674,8.907 25.09,9.256 C25.807,9.36 26.49,9.583 27.145,9.888 C28.309,9.425 29.557,9.269 30.799,9.191 z" fill="#009900"/>
      <path d="M31.095,9.187 C37.443,9.187 42.588,14.333 42.588,20.68 C42.607,22.795 41.948,24.825 40.907,26.647 C42.452,29.114 42.549,32.336 41.085,34.863 C39.799,37.083 37.573,38.492 35.04,38.794 C32.86,41.433 29.992,42.753 26.587,42.84 C23.896,42.821 21.269,41.823 19.279,40.003 C18.223,39.038 17.406,37.884 16.766,36.61 C16.293,36.794 15.788,36.851 15.285,36.871 C12.9,36.871 10.967,34.938 10.967,32.553 C10.953,31.913 11.129,31.306 11.376,30.723 C8.836,28.667 7.453,25.714 7.412,22.458 C7.412,16.601 12.159,11.854 18.015,11.854 C18.405,11.859 18.198,11.853 18.636,11.875 C20.11,9.91 22.674,8.907 25.09,9.256 C25.807,9.36 26.49,9.583 27.145,9.888 C28.309,9.425 29.557,9.269 30.799,9.191 L31.095,9.187 z M31.098,11.437 L30.901,11.44 C29.902,11.477 28.921,11.663 27.975,11.979 L27.074,12.337 L26.195,11.928 C25.698,11.697 25.227,11.549 24.768,11.483 C23.134,11.247 21.397,11.945 20.436,13.225 L19.718,14.183 L18.522,14.122 C18.399,14.116 18.23,14.107 18.226,14.106 C18.223,14.106 18.218,14.106 18.015,14.104 C13.402,14.104 9.662,17.844 9.661,22.429 C9.695,25.048 10.796,27.359 12.791,28.974 L14.107,30.039 L13.448,31.599 C13.28,31.997 13.212,32.281 13.217,32.553 C13.217,33.695 14.143,34.621 15.196,34.623 C15.57,34.608 15.802,34.571 15.952,34.513 L17.857,33.773 L18.776,35.599 C19.329,36.699 19.996,37.61 20.797,38.343 C22.358,39.77 24.443,40.575 26.53,40.59 C29.336,40.519 31.572,39.459 33.305,37.361 L33.879,36.666 L34.774,36.56 C36.638,36.338 38.224,35.314 39.138,33.735 C40.172,31.951 40.116,29.623 39,27.841 L38.285,26.7 L38.953,25.531 C39.874,23.92 40.352,22.284 40.338,20.68 C40.253,15.454 36.188,11.694 31.098,11.437 z" fill="#000000"/>
    </g>
    <path d="M19.713,32.633 L19.63,30.47 L34.185,30.357 L34.186,30.357 L34.19,30.465 C33.091,32.368 31.992,34.271 30.894,36.174 L28.651,32.289 z M34.252,30.357 L34.19,30.465 L34.186,30.357 z" fill="url(#Gradient_1)"/>
    <g>
      <path d="M32.352,24.531 C29.347,24.531 26.91,20.811 26.91,20.811 C26.91,20.811 29.347,17.091 32.352,17.091 C35.357,17.091 37.793,20.811 37.793,20.811 C37.793,20.811 35.357,24.531 32.352,24.531 z" fill="#FF0000"/>
      <path d="M32.352,17.091 C35.357,17.091 37.793,20.811 37.793,20.811 C37.793,20.811 35.357,24.531 32.352,24.531 C29.347,24.531 26.91,20.811 26.91,20.811 C26.91,20.811 29.347,17.091 32.352,17.091 z M32.352,19.341 C31.724,19.341 30.902,19.781 30.049,20.587 L29.83,20.811 L30.049,21.035 C30.902,21.841 31.724,22.281 32.352,22.281 C32.98,22.281 33.801,21.841 34.654,21.035 L34.874,20.811 L34.654,20.587 C33.801,19.781 32.98,19.341 32.352,19.341 z" fill="#000000"/>
    </g>
    <g>
      <path d="M17.648,24.531 C14.643,24.531 12.207,20.811 12.207,20.811 C12.207,20.811 14.643,17.091 17.648,17.091 C20.653,17.091 23.09,20.811 23.09,20.811 C23.09,20.811 20.653,24.531 17.648,24.531 z" fill="#FF0000"/>
      <path d="M17.648,17.091 C20.653,17.091 23.09,20.811 23.09,20.811 C23.09,20.811 20.653,24.531 17.648,24.531 C14.643,24.531 12.207,20.811 12.207,20.811 C12.207,20.811 14.643,17.091 17.648,17.091 z M17.648,19.341 C17.02,19.341 16.199,19.781 15.346,20.587 L15.126,20.811 L15.346,21.035 C16.199,21.841 17.02,22.281 17.648,22.281 C18.276,22.281 19.098,21.841 19.951,21.035 L20.17,20.811 L19.951,20.587 C19.098,19.781 18.276,19.341 17.648,19.341 z" fill="#000000"/>
    </g>
    <g>
      <path d="M25,21.57 C11.193,21.57 -0,16.742 -0,10.785 C-0,4.829 11.193,0 25,0 C38.807,0 50,4.829 50,10.785 C50,16.742 38.807,21.57 25,21.57 z" fill="#004000"/>
      <path d="M25,0 C38.807,0 50,4.829 50,10.785 C50,16.742 38.807,21.57 25,21.57 C11.193,21.57 -0,16.742 -0,10.785 C-0,4.829 11.193,0 25,0 z M25,2.25 C12.307,2.25 2.25,6.589 2.25,10.785 C2.25,14.982 12.307,19.32 25,19.32 C37.693,19.32 47.75,14.982 47.75,10.785 C47.75,6.589 37.693,2.25 25,2.25 z" fill="#000000"/>
    </g>
  </g>
</svg>
